<svg xmlns="http://www.w3.org/2000/svg" xmlns:xlink="http://www.w3.org/1999/xlink" id="inner_necklabel" width="100%" height="100%" viewBox="0 0 877.11 871.85" xmlns:printify="http://printify.com/adjuster"  printify:width="232.0725" printify:height="230.67749999999998">
  <defs>
    <clipPath id="clippath">
      <rect width="877.11" height="871.85" fill="none"/>
    </clipPath>
  <image x="0" y="0" width="877.11" height="871.85" id="fabric-image"/><path d="m877.11,90.6l-62.14-18.52-68.01-37.79s-79.62,60.67-308.92,60.67S128.2,34.5,128.2,34.5l-68.01,37.79L0,90.34v781.51h877.11V90.6Z" id="fabric-0"/><clipPath id="fabric-0-clip"><use xlink:href="#fabric-0"/></clipPath><rect id="_necktag-path" width="300" height="300" fill="none" stroke-miterlimit="10" transform=""/><clipPath><use stroke-width="0.9669687499999999mm" xlink:href="#_necktag-path"/></clipPath></defs>
  <g id="color_first" fill-rule="nonzero" fill="#fff"><use xlink:href="#fabric-0"/><use clip-path="url(#fabric-0-clip)" xlink:href="#fabric-image"/>
    
    
  <g clip-path="url(#_necktag-clippath)" transform="translate(288.555 250)"><svg id="placeholder_necktag" width="300" height="300" preserveAspectRatio="xMidYMid slice" viewBox="0 0 300 300"><use stroke-width="0.9669687499999999mm" xlink:href="#_necktag-path" stroke="#ffffff"/><use stroke-width="0.9669687499999999mm" xlink:href="#_necktag-path" stroke="#000000" stroke-dasharray="1.9339374999999999mm, 1.9339374999999999mm"/></svg></g></g>
  <g id="outlines">
    <g id="outlnes_colored">
      <g clip-path="url(#clippath)" fill="none">
        <g id="detail">
          <path id="&amp;lt;path&amp;gt;" d="m859.69,85.49l-21.82,16.64c-8.14,6.2-66.31,44.26-127.85,63.48-74.67,23.32-166.18,35.14-271.99,35.14s-197.31-11.76-272.21-34.97c-61.92-19.18-119.55-56.7-128.33-63.29l-24.46-17.01" fill="none" stroke="#000" stroke-linejoin="round" stroke-width="1.6"/>
          <path id="&amp;lt;path&amp;gt;" d="m814.98,72.07c-6.9,5.26-60.54,40.09-116.21,57.47-71.02,22.18-158.74,33.43-260.72,33.43s-189.75-11.19-261.03-33.27c-55.74-17.26-109.89-52.2-116.82-57.41" fill="none" stroke="#231f20" stroke-miterlimit="10" stroke-width="1.33"/>
        </g>
        <g id="stich">
          <path id="&amp;lt;path&amp;gt;" d="m828.62,76.17c-6.38,4.86-68.7,46.16-126.48,64.2-72.12,22.52-160.98,33.94-264.1,33.94s-192.02-11.37-264.39-33.78c-57.55-17.83-119.86-58.21-127.58-64.01" fill="none" opacity=".5" stroke="#000" stroke-dasharray="0 0 3.2 1.6" stroke-linecap="round" stroke-linejoin="round" stroke-width=".64"/>
          <path id="&amp;lt;path&amp;gt;" d="m27.85,81.99l16.46,11.45c8.52,6.4,64.5,42.83,124.88,61.53,73.82,22.86,164.28,34.46,268.86,34.46s195.03-11.65,268.61-34.63c59.99-18.73,116.46-55.66,124.36-61.68l15.27-11.65" fill="none" opacity=".5" stroke="#000" stroke-dasharray="0 0 3.2 1.6" stroke-linecap="round" stroke-linejoin="round" stroke-width=".64"/>
        </g>
        <path id="contour" d="m915.05,102.1l-100.07-30.02-68.01-37.79s-79.62,60.67-308.92,60.67S128.2,34.5,128.2,34.5l-68.01,37.79-94.55,28.37" fill="none" stroke="#000" stroke-linejoin="round" stroke-width="3.21"/>
      </g>
    </g>
  </g>
</svg>