<svg xmlns="http://www.w3.org/2000/svg" id="back" width="100%" height="100%" viewBox="0 0 3568.58 3568.58" xmlns:printify="http://printify.com/adjuster"  printify:width="944.19" printify:height="944.19"><defs><image x="0" y="0" width="3568.58" height="3568.58" id="fabric-image"/><path d="M1474.18,315.47c5.63-3.3,12.38-4.09,18.63-2.19,69.01,21.04,176.15,38.06,296.01,38.06s215.71-24.04,287.18-38.38c6.1-1.73,12.65-.87,18.12,2.34,0,0,85.39,47.04,87.17,47.75l583.6,230.03c11.66,4.6,22.49,11.06,32.06,19.16l760.05,642.11c6.2,5.24,6.8,14.6,1.32,20.58l-448.59,489.76c-5,5.47-13.32,6.2-19.21,1.72l-334.68-254.79c-1.93-1.47-4.69.03-4.52,2.44l123.42,1727.11c.59,8.28-5.97,15.32-14.26,15.32H708.11c-8.3,0-14.86-7.04-14.26-15.32l123.41-1727.11c.17-2.41-2.59-3.91-4.51-2.44l-334.69,254.79c-5.88,4.48-14.21,3.75-19.21-1.72L10.27,1274.93c-5.49-5.99-4.89-15.34,1.32-20.58l760.05-642.11c9.57-8.09,20.39-14.56,32.05-19.16l584-230.19c4.28-1.69,8.44-3.66,12.46-5.91l74.04-41.51Z" id="fabric-0"/><clipPath id="fabric-0-clip"><use href="#fabric-0"/></clipPath><rect id="_back-path" width="1500" height="1900" fill="none" stroke-linejoin="round" transform=""/><clipPath><use stroke-width="3.9341250000000003mm" xmlns:xlink="http://www.w3.org/1999/xlink" xlink:href="#_back-path"/></clipPath></defs>
  <g id="color_first" fill-rule="nonzero" fill="#fff"><use href="#fabric-0"/><use clip-path="url(#fabric-0-clip)" href="#fabric-image"/>
    
    
  <g clip-path="url(#_back-clippath)" transform="translate(1034.29 800)"><svg id="placeholder_back" width="1500" height="1900" preserveAspectRatio="xMidYMid slice" viewBox="0 0 1500 1900"><use stroke-width="3.9341250000000003mm" xmlns:xlink="http://www.w3.org/1999/xlink" xlink:href="#_back-path" stroke="#ffffff"/><use stroke-width="3.9341250000000003mm" xmlns:xlink="http://www.w3.org/1999/xlink" xlink:href="#_back-path" stroke="#000000" stroke-dasharray="7.868250000000001mm, 7.868250000000001mm"/></svg></g></g>
  <g id="outlines">
    <g id="outlines_colored">
      <path d="M2245.74,388.41c-155.47,34.63-254.13,47.96-353.07,51.7-22.16.84-44.67,1.26-67.46,1.26-58.23,0-118.35-2.73-179.51-8.18-144.91-12.9-238.12-34.58-297.51-54.68" fill="none" stroke="#231f20" stroke-miterlimit="10" stroke-width="10.66"/>
      <path d="M1368.72,370.42c59.68,18.12,147.78,36.59,276.98,48.09,61.16,5.44,121.28,8.17,179.5,8.17,22.79,0,45.31-.41,67.46-1.25,93.78-3.55,187.29-15.7,329.16-46.46" fill="none" stroke="#241f20" stroke-dasharray="0 0 21.33 6.66" stroke-linecap="round" stroke-linejoin="round" stroke-width="2.9"/>
      <path d="M2273.37,399.3c-155.47,34.63-281.75,53.24-380.7,56.98-22.16.84-44.67,1.26-67.46,1.26-58.23,0-118.35-2.73-179.51-8.18-144.91-12.9-260.45-41.94-319.84-62.05" fill="none" stroke="#241f20" stroke-dasharray="0 0 21.33 6.66" stroke-linecap="round" stroke-linejoin="round" stroke-width="2.9"/>
      <path d="M1474.18,315.47c5.63-3.3,12.38-4.09,18.63-2.19,69.01,21.04,176.15,38.06,296.01,38.06s215.71-24.04,287.18-38.38c6.1-1.73,12.65-.87,18.12,2.34,0,0,85.39,47.04,87.17,47.75l583.6,230.03c11.66,4.6,22.49,11.06,32.06,19.16l760.05,642.11c6.2,5.24,6.8,14.6,1.32,20.58l-448.59,489.76c-5,5.47-13.32,6.2-19.21,1.72l-334.68-254.79c-1.93-1.47-4.69.03-4.52,2.44l123.42,1727.11c.59,8.28-5.97,15.32-14.26,15.32H708.11c-8.3,0-14.86-7.04-14.26-15.32l123.41-1727.11c.17-2.41-2.59-3.91-4.51-2.44l-334.69,254.79c-5.88,4.48-14.21,3.75-19.21-1.72L10.27,1274.93c-5.49-5.99-4.89-15.34,1.32-20.58l760.05-642.11c9.57-8.09,20.39-14.56,32.05-19.16l584-230.19c4.28-1.69,8.44-3.66,12.46-5.91l74.04-41.51Z" fill="none" stroke="#231f20" stroke-miterlimit="10" stroke-width="11.33"/>
      <line x1="532.64" y1="1724.87" x2="62.66" y2="1211.2" fill="none" stroke="#241f20" stroke-dasharray="0 0 21.33 6.66" stroke-linecap="round" stroke-linejoin="round" stroke-width="2.9"/>
      <line x1="550.69" y1="1711.12" x2="79.96" y2="1196.63" fill="none" stroke="#241f20" stroke-dasharray="0 0 21.33 6.66" stroke-linecap="round" stroke-linejoin="round" stroke-width="2.9"/>
      <line x1="3037.62" y1="1726.11" x2="3507.34" y2="1212.4" fill="none" stroke="#241f20" stroke-dasharray="0 0 21.33 6.66" stroke-linecap="round" stroke-linejoin="round" stroke-width="2.9"/>
      <line x1="3019.37" y1="1712.28" x2="3490.07" y2="1197.8" fill="none" stroke="#241f20" stroke-dasharray="0 0 21.33 6.66" stroke-linecap="round" stroke-linejoin="round" stroke-width="2.9"/>
      <path d="M789.03,600.11s189.64,371.77,26.81,911.3" fill="none" stroke="#231f20" stroke-miterlimit="10" stroke-width="11.33"/>
      <path d="M2781.24,601.08s-191.47,370.9-28.65,910.43" fill="none" stroke="#231f20" stroke-miterlimit="10" stroke-width="11.33"/>
      <line x1="703.22" y1="3156.89" x2="2865.34" y2="3156.89" fill="none" stroke="#241f20" stroke-dasharray="0 0 21.33 6.66" stroke-linecap="round" stroke-linejoin="round" stroke-width="2.9"/>
      <line x1="2865.34" y1="3183.34" x2="703.22" y2="3183.34" fill="none" stroke="#241f20" stroke-dasharray="0 0 21.33 6.66" stroke-linecap="round" stroke-linejoin="round" stroke-width="2.9"/>
    </g>
  </g>
</svg>