<svg xmlns="http://www.w3.org/2000/svg" id="front" width="100%" height="100%" viewBox="0 0 3568.58 3568.58" xmlns:printify="http://printify.com/adjuster"  printify:width="944.19" printify:height="944.19"><defs><image x="0" y="0" width="3568.58" height="3568.58" id="fabric-image"/><path d="M3556.82,1255.51l-49.65-41.95-17.28-14.6-693.12-585.56c-4.89-4.13-10.12-7.85-15.62-11.1-5.24-3.12-10.74-5.8-16.44-8.05l-592.08-233.37-9.08-3.59-2.49-1.45-2.19-1.28-14.08-8.26-56.98-33.41c-1.59-.94-3.55-1-5.21-.18h0c-69.01,20.53-174.72,39.8-293.98,39.8-125.61,0-235.23-17.36-303.66-39.78h0c-1.24-.82-2.84-.87-4.12-.12l-59.14,34.67-14.05,8.24-1.47.87-1.53.91-10.73,4.23-590.43,232.73c-11.65,4.6-22.47,11.06-32.05,19.16L79.69,1197.83l-17.28,14.6-51,43.08c-6.21,5.24-6.81,14.6-1.32,20.58l448.58,489.76c5,5.47,13.33,6.2,19.21,1.72l54.49-41.48,18.04-13.73,262.16-199.58c1.92-1.47,4.68.03,4.51,2.44l-117.37,1642.6-6.04,84.51c-.6,8.28,5.96,15.32,14.26,15.32h2152.37c8.29,0,14.85-7.04,14.26-15.32l-6.04-84.54-117.38-1642.58c-.08-1.07.41-1.95,1.16-2.48.93-.68,2.28-.79,3.36.04l263.65,200.72,17.93,13.65,53.09,40.42c5.89,4.48,14.21,3.75,19.21-1.72l448.59-489.76c5.48-5.99,4.88-15.34-1.32-20.58Z" id="fabric-0"/><clipPath id="fabric-0-clip"><use href="#fabric-0"/></clipPath><rect id="_front-path" width="1700" height="2200" fill="none" stroke-linejoin="round" transform=""/><clipPath><use stroke-width="3.9341250000000003mm" xmlns:xlink="http://www.w3.org/1999/xlink" xlink:href="#_front-path"/></clipPath></defs>
  <g id="color_first" fill-rule="nonzero" fill="#fff"><use href="#fabric-0"/><use clip-path="url(#fabric-0-clip)" href="#fabric-image"/>
    
    
  <g clip-path="url(#_front-clippath)" transform="translate(934.29 784.29)"><svg id="placeholder_front" width="1700" height="2200" preserveAspectRatio="xMidYMid slice" viewBox="0 0 1700 2200"><use stroke-width="3.9341250000000003mm" xmlns:xlink="http://www.w3.org/1999/xlink" xlink:href="#_front-path" stroke="#ffffff"/><use stroke-width="3.9341250000000003mm" xmlns:xlink="http://www.w3.org/1999/xlink" xlink:href="#_front-path" stroke="#000000" stroke-dasharray="7.868250000000001mm, 7.868250000000001mm"/></svg></g></g>
  <g id="outlines">
    <g id="shadows">
      <path d="M2087.17,382.69c0,1.73-.01,3.48-.04,5.2-.19,11.49-.97,22.73-2.35,33.71-18.8,150.92-146.38,252.43-300.96,252.43s-287.23-105.57-301.96-261.45c-.93-9.77-1.4-19.73-1.4-29.89,0-1.13.01-2.36.03-3.67.31-17.89,2.6-51.55,4.85-66.29,68.42,22.42,178.05,39.78,303.66,39.78s224.97-19.28,293.98-39.8c2.11,14.77,4.2,54.61,4.2,69.98Z" fill="#211f1f" opacity=".25" stroke-width="0"/>
    </g>
    <g id="outlines_colored">
      <path d="M2087.17,382.69c0,1.73-.01,3.48-.04,5.2-.19,11.49-.97,22.73-2.35,33.71-18.8,150.92-146.38,252.43-300.96,252.43s-287.23-105.57-301.96-261.45c-.93-9.77-1.4-19.73-1.4-29.89,0-1.13.01-2.36.03-3.67.31-17.89,2.6-51.55,4.85-66.29,68.42,22.42,178.05,39.78,303.66,39.78s224.97-19.28,293.98-39.8c2.11,14.77,4.2,54.61,4.2,69.98Z" fill="none" stroke="#231f20" stroke-miterlimit="10" stroke-width="11.33"/>
      <path d="M2172.99,360.88c.43,7.66.64,15.37.64,23.1,0,105.79-40.64,202.78-114.45,273.09-72.32,68.92-170.17,106.85-275.52,106.85s-203.2-37.94-275.52-106.85c-73.81-70.32-114.45-167.3-114.45-273.09,0-7.52.2-15.01.6-22.46l10.73-4.23,1.53-.91,1.47-.87,14.05-8.24" fill="none" stroke="#241f20" stroke-dasharray="0 0 21.33 6.66" stroke-linecap="round" stroke-linejoin="round" stroke-width="2.9"/>
      <path d="M1485.33,312.73h0c68.42,22.42,178.05,39.78,303.66,39.78s224.97-19.28,293.98-39.8h0c1.66-.82,3.61-.76,5.21.18l56.98,33.41,14.08,8.26" fill="none" stroke="#241f20" stroke-dasharray="0 0 28.43 8.88" stroke-linecap="round" stroke-linejoin="round" stroke-width="3.87"/>
      <path d="M1485.33,312.73c68.42,22.42,178.05,39.78,303.66,39.78s224.97-19.28,293.98-39.8h0c1.66-.82,3.61-.76,5.21.18l56.98,33.41,14.08,8.26c.71,9.7,1.07,19.52,1.07,29.42,0,13.36-.65,26.47-1.95,39.34-.09.93-.19,1.88-.29,2.81-.12,1.09-.25,2.19-.37,3.28-22.02,189.61-181.07,321.19-374.03,321.19-203.43,0-369.19-146.26-376.39-352.57-.17-4.65-.25-9.34-.25-14.05,0-6.45.16-12.86.47-19.24.13-3.08.32-6.16.53-9.22l14.05-8.24" fill="none" stroke="#231f20" stroke-miterlimit="10" stroke-width="10.66"/>
      <path d="M1485.33,312.73c68.42,22.42,178.05,39.78,303.66,39.78s224.97-19.28,293.98-39.8h0c1.66-.82,3.61-.76,5.21.18l56.98,33.41c1.2,12.44,1.81,25.02,1.81,37.68,0,98.43-37.71,188.55-106.19,253.79-67.33,64.17-158.65,99.5-257.12,99.5s-189.79-35.32-257.12-99.5c-68.48-65.24-106.19-155.36-106.19-253.79,0-12.33.57-24.58,1.72-36.7" fill="none" stroke="#241f20" stroke-dasharray="0 0 21.33 6.66" stroke-linecap="round" stroke-linejoin="round" stroke-width="2.9"/>
      <path d="M2145.16,346.3l14.08,8.26,2.19,1.28,2.49,1.45,9.08,3.59,592.08,233.37c11.66,4.6,22.49,11.06,32.06,19.16l760.05,642.11c6.2,5.24,6.8,14.6,1.32,20.58l-448.59,489.76c-5,5.47-13.32,6.2-19.21,1.72l-334.68-254.79c-1.93-1.47-4.69.03-4.52,2.44l123.42,1727.11c.59,8.28-5.97,15.32-14.26,15.32H708.29c-8.3,0-14.86-7.04-14.26-15.32l123.41-1727.11c.17-2.41-2.59-3.91-4.51-2.44l-334.69,254.79c-5.88,4.48-14.21,3.75-19.21-1.72L10.45,1276.09c-5.49-5.99-4.89-15.34,1.32-20.58l760.05-642.11c9.57-8.09,20.39-14.56,32.05-19.16l590.43-232.73,10.73-4.23,1.53-.91,1.47-.87,14.05-8.24,60.92-35.05" fill="none" stroke="#231f20" stroke-miterlimit="10" stroke-width="11.33"/>
      <path d="M1481.86,412.57c119.6,20.45,363.79,50.48,602.93,9.02" fill="none" stroke="#231f20" stroke-miterlimit="10" stroke-width="11.33"/>
      <path d="M1480.48,383.25c97.25,16.7,278.53,40.04,472.46,25.4,44.35-3.35,89.36-8.68,134.19-16.54" fill="none" stroke="#241f20" stroke-dasharray="0 0 21.33 6.66" stroke-linecap="round" stroke-linejoin="round" stroke-width="2.9"/>
      <line x1="534.64" y1="1728.16" x2="61.42" y2="1210.96" fill="none" stroke="#241f20" stroke-dasharray="0 0 21.33 6.66" stroke-linecap="round" stroke-linejoin="round" stroke-width="2.9"/>
      <line x1="550.64" y1="1712.17" x2="77.42" y2="1194.96" fill="none" stroke="#241f20" stroke-dasharray="0 0 21.33 6.66" stroke-linecap="round" stroke-linejoin="round" stroke-width="2.9"/>
      <line x1="3036.68" y1="1728.16" x2="3509.89" y2="1210.96" fill="none" stroke="#241f20" stroke-dasharray="0 0 21.33 6.66" stroke-linecap="round" stroke-linejoin="round" stroke-width="2.9"/>
      <line x1="3020.68" y1="1712.17" x2="3493.9" y2="1194.96" fill="none" stroke="#241f20" stroke-dasharray="0 0 21.33 6.66" stroke-linecap="round" stroke-linejoin="round" stroke-width="2.9"/>
      <path d="M3556.82,1255.51l-49.65-41.95-17.28-14.6-693.12-585.56c-4.89-4.13-10.12-7.85-15.62-11.1-5.24-3.12-10.74-5.8-16.44-8.05l-592.08-233.37-9.08-3.59-2.49-1.45-2.19-1.28-14.08-8.26-56.98-33.41c-1.59-.94-3.55-1-5.21-.18h0c-69.01,20.53-174.72,39.8-293.98,39.8-125.61,0-235.23-17.36-303.66-39.78h0c-1.24-.82-2.84-.87-4.12-.12l-59.14,34.67-14.05,8.24-1.47.87-1.53.91-10.73,4.23-590.43,232.73c-11.65,4.6-22.47,11.06-32.05,19.16L79.69,1197.83l-17.28,14.6-51,43.08c-6.21,5.24-6.81,14.6-1.32,20.58l448.58,489.76c5,5.47,13.33,6.2,19.21,1.72l54.49-41.48,18.04-13.73,262.16-199.58c1.92-1.47,4.68.03,4.51,2.44l-117.37,1642.6-6.04,84.51c-.6,8.28,5.96,15.32,14.26,15.32h2152.37c8.29,0,14.85-7.04,14.26-15.32l-6.04-84.54-117.38-1642.58c-.08-1.07.41-1.95,1.16-2.48.93-.68,2.28-.79,3.36.04l263.65,200.72,17.93,13.65,53.09,40.42c5.89,4.48,14.21,3.75,19.21-1.72l448.59-489.76c5.48-5.99,4.88-15.34-1.32-20.58Z" fill="none" stroke="#231f20" stroke-miterlimit="10" stroke-width="11.33"/>
      <path d="M790.57,604.45s189.69,371.24,26.86,910.77" fill="none" stroke="#231f20" stroke-miterlimit="10" stroke-width="11.33"/>
      <path d="M2780.27,604.45s-189.69,371.24-26.86,910.77" fill="none" stroke="#231f20" stroke-miterlimit="10" stroke-width="11.33"/>
      <line x1="703.26" y1="3158.05" x2="2865.39" y2="3158.05" fill="none" stroke="#241f20" stroke-dasharray="0 0 21.33 6.66" stroke-linecap="round" stroke-linejoin="round" stroke-width="2.9"/>
      <line x1="2865.39" y1="3184.5" x2="703.26" y2="3184.5" fill="none" stroke="#241f20" stroke-dasharray="0 0 21.33 6.66" stroke-linecap="round" stroke-linejoin="round" stroke-width="2.9"/>
    </g>
  </g>
</svg>