<svg xmlns="http://www.w3.org/2000/svg" id="back" width="100%" height="100%" viewBox="0 0 3387.26 3387.26" xmlns:printify="http://printify.com/adjuster"  printify:width="896.2125" printify:height="896.2125"><defs><image x="0" y="0" width="3387.26" height="3387.26" id="fabric-image"/><path d="M3377.81,1022.81l-453.86,549.76c-5.63,3.51-207.33-133.27-262.96-145.02-2.19-.45-4.17,1.21-4.19,3.36h0c0,.15,.01,.28,.03,.41,.73,6.55,2.61,19.37,5.43,37.75,5.47,35.62,14.44,92.12,25.29,164.29,1.44,9.58,2.92,19.44,4.43,29.57,.79,5.28,1.57,10.64,2.37,16.06,20.61,139.62,46.19,325.71,67.64,528.63,44.23,418.51,77.71,876.99,82.89,1043.97H558.82c5.16-166.97,33.5-625.46,77.71-1043.97,21.47-203.22,47.11-389.54,67.73-529.23,.8-5.47,1.6-10.86,2.39-16.18,1.28-8.6,2.55-17.01,3.77-25.22,11.29-75.19,20.6-133.73,26.11-169.8,2.27-14.76,3.89-25.75,4.76-32.61h0s.01-.03,.01-.04c.15-1.21,.28-2.28,.39-3.23,.25-2.35-1.85-4.25-4.16-3.77-55.64,11.74-257.34,148.52-262.96,145.02L20.7,1022.81l621.66-468.4c45.75-34.46,94.76-64.16,146.3-88.68,5.77-2.75,11.58-5.44,17.42-8.05,30.77-13.81,62.38-25.79,94.7-35.87l38.03-12.33,33.9-11,353.37-114.61,81.35-132.75c7.04-11.49,20.05-17.9,33.43-16.49,55.28,5.83,200.22,20.46,258.14,20.23,.15,0,.31,0,.45-.01h.03c.15,.01,.31,0,.45,0,.17,.01,.33,0,.51,0h.48c.25,.01,.52,0,.77,0h.69c.15,.01,.29,.01,.45,.01,57.92,.23,202.86-14.41,258.14-20.23,.12-.01,.23-.03,.35-.03,13.26-1.28,26.11,5.12,33.09,16.52l82.06,133.94h.01l348.38,113.09,34.58,11.22,38.32,12.44c31.97,9.98,63.26,21.82,93.74,35.43,5.89,2.64,11.77,5.35,17.61,8.12,51.81,24.61,101.09,54.43,147.06,89.06l621.66,468.4Z" id="fabric-0"/><clipPath id="fabric-0-clip"><use href="#fabric-0"/></clipPath><rect id="_back-path" width="1439.64" height="1631.59" fill="none" stroke-linejoin="round" transform=""/><clipPath><use stroke-width="3.7342187499999997mm" xmlns:xlink="http://www.w3.org/1999/xlink" xlink:href="#_back-path"/></clipPath></defs>
  <g id="color_first" fill-rule="nonzero" fill="#fff"><use href="#fabric-0"/><use clip-path="url(#fabric-0-clip)" href="#fabric-image"/>
    
    
  <g clip-path="url(#_back-clippath)" transform="translate(979.44 614.78)"><svg id="placeholder_back" width="1439.64" height="1631.59" preserveAspectRatio="xMidYMid slice" viewBox="0 0 1439.64 1631.59"><use stroke-width="3.7342187499999997mm" xmlns:xlink="http://www.w3.org/1999/xlink" xlink:href="#_back-path" stroke="#ffffff"/><use stroke-width="3.7342187499999997mm" xmlns:xlink="http://www.w3.org/1999/xlink" xlink:href="#_back-path" stroke="#000000" stroke-dasharray="7.468437499999999mm, 7.468437499999999mm"/></svg></g></g>
  <g id="outlines">
    <g id="outlines_colored">
      <path d="M1318.94,283.62l-353.36,114.61-33.9,11-38.03,12.33c-32.31,10.08-63.93,22.06-94.7,35.87-5.84,2.61-11.65,5.31-17.42,8.05-51.53,24.53-100.55,54.23-146.3,88.68L13.57,1022.57l453.87,549.76c5.63,3.51,207.32-133.27,262.96-145.02,2.31-.48,4.41,1.43,4.16,3.77-.11,.95-.24,2.01-.39,3.23,0,.01-.01,.01-.01,.03h0c-.87,6.86-2.49,17.86-4.76,32.62-5.52,36.07-14.82,94.6-26.11,169.8-1.23,8.21-2.49,16.62-3.77,25.22-.79,5.32-1.59,10.72-2.39,16.18-20.62,139.69-46.26,326.01-67.73,529.23-44.22,418.51-72.56,876.99-77.71,1043.97H2837.73c-5.17-166.97-38.66-625.46-82.89-1043.97-21.45-202.92-47.03-389.01-67.64-528.63-.8-5.43-1.59-10.78-2.37-16.06-1.51-10.13-2.99-19.98-4.43-29.57-10.85-72.17-19.82-128.67-25.29-164.29-2.81-18.38-4.69-31.21-5.43-37.75-.01-.13-.03-.27-.03-.4h0c.01-2.16,2-3.83,4.19-3.37,55.63,11.74,257.34,148.52,262.96,145.02l453.86-549.76-621.66-468.4c-45.96-34.63-95.24-64.45-147.06-89.06-5.84-2.77-11.72-5.48-17.61-8.12-30.47-13.61-61.77-25.45-93.74-35.43l-38.32-12.44-34.58-11.22-348.38-113.09h-.01" fill="none" stroke="#241f20" stroke-linecap="round" stroke-linejoin="round" stroke-width="11.33"/>
      <path d="M2649.67,1432.42h0c-188.51-305.12-110.47-729.12-60.06-920.94,4.4-16.72,8.58-31.67,12.36-44.63" fill="none" stroke="#241f20" stroke-linecap="round" stroke-linejoin="round" stroke-width="11.33"/>
      <path d="M781.53,467.22c3.8,12.94,8.04,27.99,12.5,44.88,50.4,190.79,129.97,617.51-59.85,923.94,0,.01-.01,.01-.01,.03h0" fill="none" stroke="#241f20" stroke-linecap="round" stroke-linejoin="round" stroke-width="11.33"/>
      <line x1="2834.2" y1="3168.5" x2="554.97" y2="3168.5" fill="none" stroke="#241f20" stroke-dasharray="0 0 21.33 6.66" stroke-linecap="round" stroke-linejoin="round" stroke-width="2.9"/>
      <line x1="2833.51" y1="3155.17" x2="555.6" y2="3155.17" fill="none" stroke="#241f20" stroke-dasharray="0 0 21.33 6.66" stroke-linecap="round" stroke-linejoin="round" stroke-width="2.9"/>
      <line x1="84.81" y1="975.7" x2="538.69" y2="1525.46" fill="none" stroke="#241f20" stroke-dasharray="0 0 21.33 6.66" stroke-linecap="round" stroke-linejoin="round" stroke-width="2.9"/>
      <line x1="93.85" y1="966.67" x2="547.72" y2="1516.43" fill="none" stroke="#241f20" stroke-dasharray="0 0 21.33 6.66" stroke-linecap="round" stroke-linejoin="round" stroke-width="2.9"/>
      <line x1="3299.78" y1="975.7" x2="2845.91" y2="1525.46" fill="none" stroke="#241f20" stroke-dasharray="0 0 21.33 6.66" stroke-linecap="round" stroke-linejoin="round" stroke-width="2.9"/>
      <line x1="3290.75" y1="966.67" x2="2836.87" y2="1516.43" fill="none" stroke="#241f20" stroke-dasharray="0 0 21.33 6.66" stroke-linecap="round" stroke-linejoin="round" stroke-width="2.9"/>
      <path d="M1432.56,136.43c.12,0,.23,.01,.35,.03,55.28,5.83,201.67,18.98,259.59,18.75,57.92,.23,205.24-12.93,260.52-18.75,13.38-1.41,26.39,5,33.43,16.49l72.02,119.42,3.92,6.41c1.03,1.67,1.71,3.51,2.04,5.44,2.67,15.74-90.61,37.04-367.62,43.31-270.99-3.26-377.17-27.91-374.5-43.65,.33-1.93,1.01-3.77,2.04-5.44l3.92-6.41,72.02-119.42c7.04-11.49,20.05-17.9,33.43-16.49,55.28,5.83,202.6,18.98,260.52,18.75,57.92,.23,204.31-12.93,259.59-18.75,.12-.01,.23-.03,.35-.03" fill="none" stroke="#241f20" stroke-linecap="round" stroke-linejoin="round" stroke-width="11.33"/>
      <path d="M2752.03,554.17c-45.96-34.63-95.24-64.45-147.06-89.06-5.84-2.77-11.72-5.48-17.61-8.12-30.47-13.61-61.77-25.45-93.74-35.43l-38.32-12.44-34.58-11.22-348.38-113.09h-4.86c0-.2-.01-.4-.04-.59-.33-1.93-1.01-3.77-2.04-5.44l-3.92-6.41-72.02-119.42c-7.04-11.49-20.05-17.9-33.43-16.49-27.17,2.85-76.58,7.49-126.68,11.44v-.24c-51.19,4.04-102.89,7.33-132.1,7.21-57.92,.23-205.24-12.93-260.52-18.76-13.38-1.41-26.39,5-33.43,16.49l-72.02,119.42-3.92,6.41c-.98,1.6-1.64,3.35-1.99,5.2h-3.43l-353.36,114.61-33.9,11-38.03,12.33c-32.31,10.08-63.93,22.06-94.7,35.87-5.84,2.61-11.65,5.31-17.42,8.05-51.53,24.53-100.55,54.23-146.3,88.68L16.58,1022.57l453.87,549.76c5.62,3.51,207.32-133.27,262.96-145.02,2.31-.48,4.41,1.43,4.16,3.77-.11,.95-.24,2.01-.39,3.23,0,.01-.01,.01-.01,.03h0c-.87,6.86-2.49,17.86-4.76,32.62-5.52,36.07-14.82,94.6-26.11,169.8-1.23,8.21-2.49,16.62-3.77,25.22-.79,5.32-1.59,10.72-2.39,16.18-20.62,139.69-46.26,326.01-67.73,529.23-44.22,418.51-72.56,876.99-77.71,1043.97H2840.74c-5.17-166.97-38.66-625.46-82.89-1043.97-21.45-202.92-47.03-389.01-67.64-528.63-.8-5.43-1.59-10.78-2.37-16.06-1.51-10.13-2.99-19.98-4.43-29.57-10.85-72.17-19.82-128.67-25.29-164.29-2.81-18.38-4.69-31.21-5.43-37.75-.01-.13-.03-.27-.03-.4h0c.01-2.16,2-3.83,4.19-3.37,55.63,11.74,257.34,148.52,262.96,145.02l453.86-549.76-621.66-468.4Z" fill="none" stroke="#241f20" stroke-linecap="round" stroke-linejoin="round" stroke-width="11.33"/>
    </g>
  </g>
</svg>